<?xml version="1.0" encoding="utf-8"?>
<!-- Generator: Adobe Illustrator 25.0.0, SVG Export Plug-In . SVG Version: 6.00 Build 0)  -->
<svg version="1.1" id="mask_image" xmlns="http://www.w3.org/2000/svg" xmlns:xlink="http://www.w3.org/1999/xlink" x="0px" y="0px"
	 viewBox="0 0 500 500" style="enable-background:new 0 0 500 500;" xml:space="preserve">
<style type="text/css">
	.st0{fill:#3800B2;}
</style>
<path class="st0" d="M11.14,398.04c17.39-1.92,22.53-16.79,22.53-16.79L145.2,115.03c0,0,7.25-18.3,24.29-18.3h159.58
	c1.72,0,159.58,0,159.58,0c1.45,0,2.62,1.17,2.62,2.62c0,1.36-1.05,2.46-2.41,2.61c-17.39,1.92-22.53,16.79-22.53,16.79
	L354.8,384.97c0,0-7.62,18.3-24.29,18.3H170.93c-1.72,0-159.58,0-159.58,0c-1.45,0-2.62-1.17-2.62-2.62
	C8.74,399.28,9.79,398.19,11.14,398.04z"/>
</svg>
