<?xml version="1.0" encoding="UTF-8"?>
<svg id="Capa_2" data-name="Capa 2" xmlns="http://www.w3.org/2000/svg" viewBox="0 0 34 23.3">
  <defs>
    <style>
      .cls-1 {
        fill: #08173e;
      }
    </style>
  </defs>
  <g id="Capa_1-2" data-name="Capa 1">
    <path class="cls-1" d="m31,0c-1.3,0-2.4.84-2.82,2H1c-.55,0-1,.45-1,1v19c0,.05.02.1.03.15,0,.05-.03.1-.03.15,0,.55.45,1,1,1h7.55c.55,0,1-.45,1-1s-.45-1-1-1H2v-4.5h14.1c.55,0,1-.45,1-1s-.45-1-1-1H2v-4.39h20c.55,0,1-.45,1-1s-.45-1-1-1H2v-4.41h26.18c.41,1.16,1.51,2,2.82,2,1.66,0,3-1.34,3-3s-1.34-3-3-3Z"/>
  </g>
</svg>