<?xml version="1.0" encoding="UTF-8"?>
<svg id="Capa_2" data-name="Capa 2" xmlns="http://www.w3.org/2000/svg" viewBox="0 0 38.98 27">
  <defs>
    <style>
      .cls-1 {
        fill: #08173e;
      }
    </style>
  </defs>
  <g id="Capa_1-2" data-name="Capa 1">
    <g>
      <path class="cls-1" d="m31.07,16.46c-.48-.32-3.2.96-3.36,1.21-.16.25,0,2.47,0,2.47,0,0,1.44.48,2.08.48s1.28.32,2.24.64,1.28-.96,1.65-1.45c.37-.49-.69-1.75-1.17-2.23s-1.3-1.03-1.44-1.12Z"/>
      <path class="cls-1" d="m29.01,13.48c.46.42,3.02-.86,2.86-1.98s-.8-2.88-.8-2.88c0,0,1.12-.32,1.28-.48s1.12-1.91,0-1.99-7.66-.17-7.91.19c-.24.36-2.96,1.32-4.08,1.32s-2.24.32-2.4,1.28-.96,2.17,0,2.2,2.24-.45,2.56-.13.64,1.92.64,1.92c0,0,.12.08.31.2-.44-.1-.83-.35-1.14-.69-.3-.34-.76-.65-1.33-.36-1.04.53-1.59-.71-1.99.93-.33,1.36-.01.88-.17,1.68-.39,1.94,0,1.6.96,2.4,2.02,1.69,1.6.8,1.92,1.12.17.17-.64-.16.3,1.42.4.68.15,1.59.79,2.05.17.12.34.2.5.2.5,0,1.14-.8,1.38-1.14.07-.09.13-.19.18-.29.24-.48.97-2.02.83-2.56-.16-.64.64-.16,1.18-1.93.11-.36-.59-1.57-1.04-1.82-.17-.09-.4-.23-.64-.38.19,0,.37-.02.53-.09.94-.42,1.12-.62,1.67-.2.54.42,1.45.1,2.04-.54.59-.64,1.11.12,1.57.54Z"/>
      <path class="cls-1" d="m11.48,4.35c-.58.04-3.58-.36-4.33-.59s-1.96,1.99-1.96,1.99c-.96.96-.16,1.44.36,1.78.52.34.59.3.61,1.64.01,1.34-.33.89-.58,2.2-.24,1.31,1.04,1.25,2,2.05.11.09.2.19.27.29-.11.04-.24.09-.43.19-.64.32-.64.64-1.12,1.6-.52,1.03.48,1.28.64,1.92s.32.64,1.24,1.19c.92.55.99,1.85.99,1.85l.16,2.22.92.68c.41.3,1,.11,1.15-.37l.46-1.44s.84-.59.66-1.4.8-1.12.8-1.12c0,0,.57-1.24.32-2.88l-.8-.8-.04-.76c-.04-.76-1.24-.2-1.24-.2l-1.6-.68c-.46-.2-.96-.24-1.45-.13,0-.05,0-.1,0-.15,0-.8.16-.8.9-1.66.74-.86,1.18-.26,2.13-1.06s2.08-1.12,2.83-1.9c.75-.78.8-2.4,0-3.6-.04-.07-2.35-.89-2.93-.86Z"/>
      <path class="cls-1" d="m36.43,0H2.56C1.15,0,0,1.15,0,2.56v21.89c0,1.41,1.15,2.56,2.56,2.56h33.87c1.41,0,2.56-1.15,2.56-2.56V2.56c0-1.41-1.15-2.56-2.56-2.56Zm1.28,24.44c0,.7-.57,1.28-1.28,1.28H2.56c-.7,0-1.28-.57-1.28-1.28V2.56c0-.7.57-1.28,1.28-1.28h33.87c.7,0,1.28.57,1.28,1.28v21.89Z"/>
    </g>
  </g>
</svg>