<svg width="49.176" height="46.469" viewBox="0 0 13.011 12.295" xmlns="http://www.w3.org/2000/svg" xmlns:xlink="http://www.w3.org/1999/xlink"><defs><pattern id="b" patternTransform="translate(10.505 77.203) scale(.26458)" xlink:href="#a"/><pattern id="a" width="49.175" height="46.468" patternTransform="translate(.412 476.77)" patternUnits="userSpaceOnUse"><path class="logoArca" fill="#AF2828" d="M48.81 45.675c-2.635-.29-3.416-2.545-3.416-2.545L28.489 2.774S27.579 0 24.588 0s-3.902 2.774-3.902 2.774L3.78 43.13S3 45.384.364 45.675a.402.402 0 0 0-.365.396c0 .22.178.398.398.398h48.38c.219 0 .397-.179.397-.398a.402.402 0 0 0-.365-.396zm-7.303-.03a6.664 6.664 0 0 1-6.142-4.08L25.244 17.516a.725.725 0 0 0-1.337 0l-10.12 24.049a6.664 6.664 0 0 1-6.143 4.08H2.373c1.344-.478 1.864-1.778 1.864-1.778L20.262 5.678l.954-2.34S22.298.822 24.552.822s3.338 2.601 3.338 2.601l.997 2.254 16.21 38.518a2.477 2.477 0 0 0 1.704 1.448h-5.294z" stroke-width=".05"/></pattern></defs><path fill="url(#b)" d="M10.505 77.203h13.011v12.295H10.505z" transform="translate(-10.505 -77.203)"/></svg>