<?xml version="1.0" encoding="utf-8"?>
<!-- Generator: Adobe Illustrator 25.0.0, SVG Export Plug-In . SVG Version: 6.00 Build 0)  -->
<svg version="1.1" id="flor_x5F_azul" xmlns="http://www.w3.org/2000/svg" xmlns:xlink="http://www.w3.org/1999/xlink" x="0px"
	 y="0px" viewBox="0 0 40 40" style="enable-background:new 0 0 40 40;" xml:space="preserve">
<style type="text/css">
	.st0{fill:#08173E;}
</style>
<g>
	<g id="Group_4" transform="translate(-1666 -48)">
		<path id="Polygon_2" class="st0" d="M1687.88,67.91c-0.38,1.04-1.53,1.57-2.57,1.18c-0.55-0.2-0.98-0.64-1.18-1.18l-4.13-11.21
			c-0.38-1.04,0.15-2.19,1.19-2.57c0.22-0.08,0.45-0.12,0.69-0.12h8.26c1.1,0,2,0.9,2,2c0,0.24-0.04,0.47-0.12,0.69L1687.88,67.91z"
			/>
		<path id="Polygon_5" class="st0" d="M1684.12,68.09c0.38-1.04,1.53-1.57,2.57-1.18c0.55,0.2,0.98,0.64,1.18,1.18l4.13,11.21
			c0.38,1.04-0.15,2.19-1.19,2.57c-0.22,0.08-0.45,0.12-0.69,0.12h-8.26c-1.1,0-2-0.9-2-2c0-0.24,0.04-0.47,0.12-0.69L1684.12,68.09
			z"/>
	</g>
	<g id="Group_5" transform="translate(76 -1666) rotate(90)">
		<path id="Polygon_2-2" class="st0" d="M1687.88,55.91c-0.38,1.04-1.53,1.57-2.57,1.18c-0.55-0.2-0.98-0.64-1.18-1.18l-4.13-11.21
			c-0.38-1.04,0.15-2.19,1.19-2.57c0.22-0.08,0.45-0.12,0.69-0.12h8.26c1.1,0,2,0.9,2,2c0,0.24-0.04,0.47-0.12,0.69L1687.88,55.91z"
			/>
		<path id="Polygon_5-2" class="st0" d="M1684.12,56.09c0.38-1.04,1.53-1.57,2.57-1.18c0.55,0.2,0.98,0.64,1.18,1.18l4.13,11.21
			c0.38,1.04-0.15,2.19-1.19,2.57c-0.22,0.08-0.45,0.12-0.69,0.12h-8.26c-1.1,0-2-0.9-2-2c0-0.24,0.04-0.47,0.12-0.69L1684.12,56.09
			z"/>
	</g>
</g>
</svg>
