<?xml version="1.0" encoding="utf-8"?>
<!-- Generator: Adobe Illustrator 25.0.0, SVG Export Plug-In . SVG Version: 6.00 Build 0)  -->
<svg version="1.1" id="Layer_1" xmlns="http://www.w3.org/2000/svg" xmlns:xlink="http://www.w3.org/1999/xlink" x="0px" y="0px"
	 viewBox="0 0 700 700" style="enable-background:new 0 0 700 700;" xml:space="preserve">
<style type="text/css">
	.st0{fill:#FFFFFF;}
</style>
<rect width="700" height="700"/>
<path class="st0" d="M578,561.2c-24.8-2.7-32.1-23.9-32.1-23.9L386.7,157.4c0,0-8.6-26.1-36.7-26.1s-36.7,26.1-36.7,26.1
	L154.2,537.3c0,0-7.3,21.2-32.1,23.9c-1.9,0.2-3.4,1.8-3.4,3.7c0,2.1,1.7,3.7,3.7,3.7H350c2.4,0,227.7,0,227.7,0
	c2.1,0,3.7-1.7,3.7-3.7C581.4,563,579.9,561.4,578,561.2z M509.2,560.9c-25.2,0-48-15.1-57.8-38.4l-95.3-226.3
	c-2.3-5.6-10.2-5.6-12.6,0l-95.3,226.3c-9.8,23.3-32.6,38.4-57.8,38.4h-49.6c12.6-4.5,17.5-16.7,17.5-16.7l150.8-359.4l9-22
	c0,0,10.2-23.7,31.4-23.7s31.4,24.5,31.4,24.5l9.4,21.2L543,547.3c2.9,6.8,8.8,11.9,16,13.6H509.2z"/>
</svg>
